<svg xmlns="http://www.w3.org/2000/svg" xmlns:xlink="http://www.w3.org/1999/xlink" width="42" zoomAndPan="magnify" viewBox="0 0 31.5 30.000001" height="40" preserveAspectRatio="xMidYMid meet" version="1.0"><defs><g/><clipPath id="c946251f9d"><path d="M 0.265625 0 L 30.75 0 L 30.75 29.03125 L 0.265625 29.03125 Z M 0.265625 0 " clip-rule="nonzero"/></clipPath><clipPath id="800d6805c0"><path d="M 0.464844 4 L 16.722656 4 L 16.722656 19 L 0.464844 19 Z M 0.464844 4 " clip-rule="nonzero"/></clipPath><clipPath id="394ba8b850"><rect x="0" width="17" y="0" height="23"/></clipPath><clipPath id="de7af74fa4"><path d="M 1.007812 15 L 30.007812 15 L 30.007812 29 L 1.007812 29 Z M 1.007812 15 " clip-rule="nonzero"/></clipPath><clipPath id="dc713102c5"><path d="M 1.007812 1.453125 L 1.007812 27.550781 C 1.007812 28.351562 1.65625 29 2.460938 29 L 28.558594 29 C 29.359375 29 30.007812 28.351562 30.007812 27.550781 L 30.007812 1.453125 C 30.007812 0.648438 29.359375 0 28.558594 0 L 2.460938 0 C 1.65625 0 1.007812 0.648438 1.007812 1.453125 Z M 1.007812 1.453125 " clip-rule="nonzero"/></clipPath><clipPath id="1f0303b425"><path d="M 1.007812 0 L 30.007812 0 L 30.007812 15 L 1.007812 15 Z M 1.007812 0 " clip-rule="nonzero"/></clipPath><clipPath id="e9df59dadc"><path d="M 1.007812 1.453125 L 1.007812 27.550781 C 1.007812 28.351562 1.65625 29 2.460938 29 L 28.558594 29 C 29.359375 29 30.007812 28.351562 30.007812 27.550781 L 30.007812 1.453125 C 30.007812 0.648438 29.359375 0 28.558594 0 L 2.460938 0 C 1.65625 0 1.007812 0.648438 1.007812 1.453125 Z M 1.007812 1.453125 " clip-rule="nonzero"/></clipPath><clipPath id="9427937417"><rect x="0" width="31" y="0" height="30"/></clipPath></defs><g clip-path="url(#c946251f9d)"><g transform="matrix(1, 0, 0, 1, 0, 0.000000000000005692)"><g clip-path="url(#9427937417)"><g transform="matrix(1, 0, 0, 1, 7, 3)"><g clip-path="url(#394ba8b850)"><g clip-path="url(#800d6805c0)"><g fill="#ffffff" fill-opacity="1"><g transform="translate(0.942447, 18.016265)"><g><path d="M 11 0 L 8.203125 -10.921875 L 8.890625 -13.546875 L 12.015625 -13.546875 L 15.453125 0 Z M -0.359375 0 L 1.890625 -8.703125 L 4.125 0 Z M 5.296875 0 L 2.5 -10.921875 L 3.1875 -13.546875 L 6.296875 -13.546875 L 9.765625 0 Z M 5.296875 0 "/></g></g></g></g></g></g><g clip-path="url(#de7af74fa4)"><g clip-path="url(#dc713102c5)"><path fill="#ffffff" d="M 30.007812 15.597656 L 30.007812 17.875 C 30.007812 20.9375 28.757812 23.71875 26.742188 25.734375 C 24.726562 27.75 21.945312 29 18.882812 29 L 12.132812 29 C 9.070312 29 6.289062 27.75 4.273438 25.734375 C 2.257812 23.71875 1.007812 20.9375 1.007812 17.875 L 1.007812 15.597656 C 2.390625 16.167969 3.804688 16.644531 5.25 17.03125 L 5.25 17.875 C 5.25 19.765625 6.027344 21.484375 7.273438 22.734375 C 8.523438 23.980469 10.242188 24.757812 12.132812 24.757812 L 18.882812 24.757812 C 20.773438 24.757812 22.492188 23.980469 23.742188 22.734375 C 24.988281 21.484375 25.765625 19.765625 25.765625 17.875 L 25.765625 17.03125 C 27.210938 16.644531 28.625 16.167969 30.007812 15.597656 Z M 30.007812 15.597656 " fill-opacity="1" fill-rule="nonzero"/></g></g><g clip-path="url(#1f0303b425)"><g clip-path="url(#e9df59dadc)"><path fill="#ffb703" d="M 12.132812 0 L 18.882812 0 C 21.945312 0 24.726562 1.25 26.742188 3.265625 C 28.757812 5.28125 30.007812 8.0625 30.007812 11.125 L 30.007812 13.140625 C 28.683594 13.742188 27.265625 14.261719 25.765625 14.691406 L 25.765625 11.125 C 25.765625 9.234375 24.988281 7.515625 23.742188 6.265625 C 22.492188 5.019531 20.773438 4.246094 18.882812 4.246094 L 12.132812 4.246094 C 10.242188 4.246094 8.523438 5.019531 7.273438 6.265625 C 6.027344 7.515625 5.25 9.234375 5.25 11.125 L 5.25 14.691406 C 3.75 14.261719 2.332031 13.742188 1.007812 13.140625 L 1.007812 11.125 C 1.007812 8.0625 2.257812 5.28125 4.273438 3.265625 C 6.289062 1.25 9.070312 0 12.132812 0 Z M 12.132812 0 " fill-opacity="1" fill-rule="nonzero"/></g></g></g></g></g></svg>