<svg xmlns="http://www.w3.org/2000/svg" xmlns:xlink="http://www.w3.org/1999/xlink" width="42" zoomAndPan="magnify" viewBox="0 0 31.5 30.000001" height="40" preserveAspectRatio="xMidYMid meet" version="1.0"><defs><clipPath id="3e5f38398a"><path d="M 0.265625 0 L 30.75 0 L 30.75 29.03125 L 0.265625 29.03125 Z M 0.265625 0 " clip-rule="nonzero"/></clipPath><clipPath id="46527dadb1"><path d="M 1.007812 15 L 30.039062 15 L 30.039062 29.03125 L 1.007812 29.03125 Z M 1.007812 15 " clip-rule="nonzero"/></clipPath><clipPath id="34ef90df6a"><path d="M 1.007812 1.453125 L 1.007812 27.582031 C 1.007812 28.382812 1.660156 29.03125 2.460938 29.03125 L 28.589844 29.03125 C 29.390625 29.03125 30.039062 28.382812 30.039062 27.582031 L 30.039062 1.453125 C 30.039062 0.648438 29.390625 0 28.589844 0 L 2.460938 0 C 1.660156 0 1.007812 0.648438 1.007812 1.453125 Z M 1.007812 1.453125 " clip-rule="nonzero"/></clipPath><clipPath id="4bfb34731d"><path d="M 1.007812 0 L 30.039062 0 L 30.039062 15 L 1.007812 15 Z M 1.007812 0 " clip-rule="nonzero"/></clipPath><clipPath id="ccf63ed935"><path d="M 1.007812 1.453125 L 1.007812 27.582031 C 1.007812 28.382812 1.660156 29.03125 2.460938 29.03125 L 28.589844 29.03125 C 29.390625 29.03125 30.039062 28.382812 30.039062 27.582031 L 30.039062 1.453125 C 30.039062 0.648438 29.390625 0 28.589844 0 L 2.460938 0 C 1.660156 0 1.007812 0.648438 1.007812 1.453125 Z M 1.007812 1.453125 " clip-rule="nonzero"/></clipPath></defs><g clip-path="url(#3e5f38398a)"><path fill="#ffffff" d="M 0.265625 0 L 30.75 0 L 30.75 29.03125 L 0.265625 29.03125 Z M 0.265625 0 " fill-opacity="1" fill-rule="nonzero"/><path fill="#ffffff" d="M 0.265625 0 L 30.75 0 L 30.75 29.03125 L 0.265625 29.03125 Z M 0.265625 0 " fill-opacity="1" fill-rule="nonzero"/></g><g clip-path="url(#46527dadb1)"><g clip-path="url(#34ef90df6a)"><path fill="#ffffff" d="M 30.039062 15.613281 L 30.039062 17.894531 C 30.039062 20.960938 28.789062 23.746094 26.769531 25.761719 C 24.753906 27.78125 21.96875 29.03125 18.902344 29.03125 L 12.144531 29.03125 C 9.078125 29.03125 6.296875 27.78125 4.277344 25.761719 C 2.261719 23.746094 1.007812 20.960938 1.007812 17.894531 L 1.007812 15.613281 C 2.394531 16.1875 3.808594 16.664062 5.257812 17.050781 L 5.257812 17.894531 C 5.257812 19.789062 6.03125 21.507812 7.28125 22.757812 C 8.53125 24.007812 10.253906 24.78125 12.144531 24.78125 L 18.902344 24.78125 C 20.796875 24.78125 22.515625 24.007812 23.765625 22.757812 C 25.015625 21.507812 25.792969 19.789062 25.792969 17.894531 L 25.792969 17.050781 C 27.238281 16.664062 28.65625 16.1875 30.039062 15.613281 Z M 30.039062 15.613281 " fill-opacity="1" fill-rule="nonzero"/></g></g><g clip-path="url(#4bfb34731d)"><g clip-path="url(#ccf63ed935)"><path fill="#ffb703" d="M 12.144531 0 L 18.902344 0 C 21.96875 0 24.753906 1.253906 26.769531 3.269531 C 28.789062 5.285156 30.039062 8.070312 30.039062 11.136719 L 30.039062 13.152344 C 28.714844 13.753906 27.292969 14.277344 25.792969 14.707031 L 25.792969 11.136719 C 25.792969 9.246094 25.015625 7.523438 23.765625 6.273438 C 22.515625 5.023438 20.796875 4.25 18.902344 4.25 L 12.144531 4.25 C 10.253906 4.25 8.53125 5.023438 7.28125 6.273438 C 6.03125 7.523438 5.257812 9.246094 5.257812 11.136719 L 5.257812 14.707031 C 3.753906 14.277344 2.332031 13.753906 1.007812 13.152344 L 1.007812 11.136719 C 1.007812 8.070312 2.261719 5.289062 4.277344 3.269531 C 6.296875 1.253906 9.078125 0 12.144531 0 Z M 12.144531 0 " fill-opacity="1" fill-rule="nonzero"/></g></g></svg>