<svg xmlns="http://www.w3.org/2000/svg" xmlns:xlink="http://www.w3.org/1999/xlink" width="200" zoomAndPan="magnify" viewBox="0 0 150 30.000001" height="40" preserveAspectRatio="xMidYMid meet" version="1.0"><defs><g/><clipPath id="9a438b6d0f"><path d="M 0.621094 4 L 16.878906 4 L 16.878906 19 L 0.621094 19 Z M 0.621094 4 " clip-rule="nonzero"/></clipPath><clipPath id="7a9490a2c6"><rect x="0" width="17" y="0" height="23"/></clipPath><clipPath id="ba0e38d41b"><path d="M 3.160156 15 L 32.195312 15 L 32.195312 29.03125 L 3.160156 29.03125 Z M 3.160156 15 " clip-rule="nonzero"/></clipPath><clipPath id="c7b5da8075"><path d="M 3.160156 1.453125 L 3.160156 27.582031 C 3.160156 28.382812 3.8125 29.03125 4.613281 29.03125 L 30.742188 29.03125 C 31.542969 29.03125 32.195312 28.382812 32.195312 27.582031 L 32.195312 1.453125 C 32.195312 0.648438 31.542969 0 30.742188 0 L 4.613281 0 C 3.8125 0 3.160156 0.648438 3.160156 1.453125 Z M 3.160156 1.453125 " clip-rule="nonzero"/></clipPath><clipPath id="1b2fcf3865"><path d="M 3.160156 0 L 32.195312 0 L 32.195312 15 L 3.160156 15 Z M 3.160156 0 " clip-rule="nonzero"/></clipPath><clipPath id="eb6a14466b"><path d="M 3.160156 1.453125 L 3.160156 27.582031 C 3.160156 28.382812 3.8125 29.03125 4.613281 29.03125 L 30.742188 29.03125 C 31.542969 29.03125 32.195312 28.382812 32.195312 27.582031 L 32.195312 1.453125 C 32.195312 0.648438 31.542969 0 30.742188 0 L 4.613281 0 C 3.8125 0 3.160156 0.648438 3.160156 1.453125 Z M 3.160156 1.453125 " clip-rule="nonzero"/></clipPath></defs><g transform="matrix(1, 0, 0, 1, 9, 3)"><g clip-path="url(#7a9490a2c6)"><g clip-path="url(#9a438b6d0f)"><g fill="#ffb703" fill-opacity="1"><g transform="translate(1.103965, 18.038973)"><g><path d="M 11 0 L 8.203125 -10.9375 L 8.90625 -13.5625 L 12.015625 -13.5625 L 15.46875 0 Z M -0.359375 0 L 1.890625 -8.71875 L 4.140625 0 Z M 5.296875 0 L 2.5 -10.9375 L 3.1875 -13.5625 L 6.3125 -13.5625 L 9.765625 0 Z M 5.296875 0 "/></g></g></g></g></g></g><g clip-path="url(#ba0e38d41b)"><g clip-path="url(#c7b5da8075)"><path fill="#ffffff" d="M 32.191406 15.613281 L 32.191406 17.894531 C 32.191406 20.960938 30.941406 23.746094 28.921875 25.761719 C 26.90625 27.78125 24.121094 29.03125 21.058594 29.03125 L 14.296875 29.03125 C 11.234375 29.03125 8.449219 27.78125 6.429688 25.761719 C 4.414062 23.746094 3.160156 20.960938 3.160156 17.894531 L 3.160156 15.613281 C 4.546875 16.1875 5.960938 16.664062 7.410156 17.050781 L 7.410156 17.894531 C 7.410156 19.789062 8.1875 21.507812 9.433594 22.757812 C 10.683594 24.007812 12.40625 24.78125 14.296875 24.78125 L 21.058594 24.78125 C 22.949219 24.78125 24.671875 24.007812 25.917969 22.757812 C 27.167969 21.507812 27.945312 19.789062 27.945312 17.894531 L 27.945312 17.050781 C 29.390625 16.664062 30.808594 16.1875 32.191406 15.613281 Z M 32.191406 15.613281 " fill-opacity="1" fill-rule="nonzero"/></g></g><g clip-path="url(#1b2fcf3865)"><g clip-path="url(#eb6a14466b)"><path fill="#ffb703" d="M 14.296875 0 L 21.058594 0 C 24.121094 0 26.90625 1.253906 28.921875 3.269531 C 30.941406 5.285156 32.191406 8.070312 32.191406 11.136719 L 32.191406 13.152344 C 30.871094 13.753906 29.445312 14.277344 27.945312 14.707031 L 27.945312 11.136719 C 27.945312 9.246094 27.167969 7.523438 25.917969 6.273438 C 24.671875 5.023438 22.949219 4.25 21.058594 4.25 L 14.296875 4.25 C 12.40625 4.25 10.683594 5.023438 9.433594 6.273438 C 8.1875 7.523438 7.410156 9.246094 7.410156 11.136719 L 7.410156 14.707031 C 5.90625 14.277344 4.484375 13.753906 3.160156 13.152344 L 3.160156 11.136719 C 3.160156 8.070312 4.414062 5.289062 6.429688 3.269531 C 8.449219 1.253906 11.234375 0 14.296875 0 Z M 14.296875 0 " fill-opacity="1" fill-rule="nonzero"/></g></g><g fill="#ffffff" fill-opacity="1"><g transform="translate(40.954252, 19.299743)"><g><path d="M 11.5625 -9.953125 C 11.632812 -9.804688 11.675781 -9.675781 11.6875 -9.5625 C 11.695312 -9.445312 11.703125 -9.285156 11.703125 -9.078125 L 11.703125 -1.234375 C 11.703125 -0.585938 11.523438 -0.207031 11.171875 -0.09375 C 10.992188 -0.0390625 10.769531 -0.015625 10.5 -0.015625 C 10.226562 -0.015625 10.007812 -0.0351562 9.84375 -0.078125 C 9.6875 -0.128906 9.566406 -0.1875 9.484375 -0.25 C 9.398438 -0.320312 9.332031 -0.414062 9.28125 -0.53125 C 9.238281 -0.695312 9.21875 -0.941406 9.21875 -1.265625 L 9.21875 -6 C 8.976562 -5.707031 8.628906 -5.242188 8.171875 -4.609375 C 7.722656 -3.972656 7.4375 -3.570312 7.3125 -3.40625 C 7.195312 -3.25 7.113281 -3.140625 7.0625 -3.078125 C 7.019531 -3.015625 6.90625 -2.929688 6.71875 -2.828125 C 6.539062 -2.722656 6.34375 -2.671875 6.125 -2.671875 C 5.914062 -2.671875 5.722656 -2.71875 5.546875 -2.8125 C 5.378906 -2.914062 5.253906 -3.015625 5.171875 -3.109375 L 5.0625 -3.265625 C 4.875 -3.492188 4.503906 -3.988281 3.953125 -4.75 C 3.398438 -5.519531 3.097656 -5.9375 3.046875 -6 L 3.046875 -1.234375 C 3.046875 -1.023438 3.035156 -0.863281 3.015625 -0.75 C 3.003906 -0.644531 2.960938 -0.523438 2.890625 -0.390625 C 2.753906 -0.140625 2.390625 -0.015625 1.796875 -0.015625 C 1.222656 -0.015625 0.863281 -0.140625 0.71875 -0.390625 C 0.644531 -0.523438 0.597656 -0.648438 0.578125 -0.765625 C 0.566406 -0.878906 0.5625 -1.046875 0.5625 -1.265625 L 0.5625 -9.09375 C 0.5625 -9.3125 0.566406 -9.472656 0.578125 -9.578125 C 0.597656 -9.691406 0.644531 -9.820312 0.71875 -9.96875 C 0.863281 -10.207031 1.226562 -10.328125 1.8125 -10.328125 C 2.070312 -10.328125 2.289062 -10.296875 2.46875 -10.234375 C 2.65625 -10.171875 2.78125 -10.109375 2.84375 -10.046875 L 2.921875 -9.96875 L 6.125 -5.75 C 7.71875 -7.875 8.785156 -9.273438 9.328125 -9.953125 C 9.484375 -10.203125 9.859375 -10.328125 10.453125 -10.328125 C 11.054688 -10.328125 11.425781 -10.203125 11.5625 -9.953125 Z M 11.5625 -9.953125 "/></g></g></g><g fill="#ffffff" fill-opacity="1"><g transform="translate(53.510396, 19.299743)"><g><path d="M 6.53125 -9.609375 L 10.34375 -1.734375 C 10.5 -1.410156 10.578125 -1.171875 10.578125 -1.015625 C 10.578125 -0.679688 10.304688 -0.375 9.765625 -0.09375 C 9.441406 0.0625 9.1875 0.140625 9 0.140625 C 8.820312 0.140625 8.671875 0.0976562 8.546875 0.015625 C 8.429688 -0.0664062 8.347656 -0.15625 8.296875 -0.25 C 8.242188 -0.34375 8.171875 -0.484375 8.078125 -0.671875 L 7.34375 -2.203125 L 3.4375 -2.203125 L 2.703125 -0.671875 C 2.609375 -0.484375 2.535156 -0.347656 2.484375 -0.265625 C 2.429688 -0.179688 2.347656 -0.09375 2.234375 0 C 2.117188 0.0820312 1.96875 0.125 1.78125 0.125 C 1.601562 0.125 1.351562 0.046875 1.03125 -0.109375 C 0.488281 -0.378906 0.21875 -0.679688 0.21875 -1.015625 C 0.21875 -1.171875 0.296875 -1.410156 0.453125 -1.734375 L 4.265625 -9.625 C 4.367188 -9.84375 4.523438 -10.015625 4.734375 -10.140625 C 4.941406 -10.273438 5.164062 -10.34375 5.40625 -10.34375 C 5.914062 -10.34375 6.289062 -10.097656 6.53125 -9.609375 Z M 5.390625 -6.21875 L 4.453125 -4.296875 L 6.328125 -4.296875 Z M 5.390625 -6.21875 "/></g></g></g><g fill="#ffffff" fill-opacity="1"><g transform="translate(64.585202, 19.299743)"><g><path d="M 11.5625 -9.953125 C 11.632812 -9.804688 11.675781 -9.675781 11.6875 -9.5625 C 11.695312 -9.445312 11.703125 -9.285156 11.703125 -9.078125 L 11.703125 -1.234375 C 11.703125 -0.585938 11.523438 -0.207031 11.171875 -0.09375 C 10.992188 -0.0390625 10.769531 -0.015625 10.5 -0.015625 C 10.226562 -0.015625 10.007812 -0.0351562 9.84375 -0.078125 C 9.6875 -0.128906 9.566406 -0.1875 9.484375 -0.25 C 9.398438 -0.320312 9.332031 -0.414062 9.28125 -0.53125 C 9.238281 -0.695312 9.21875 -0.941406 9.21875 -1.265625 L 9.21875 -6 C 8.976562 -5.707031 8.628906 -5.242188 8.171875 -4.609375 C 7.722656 -3.972656 7.4375 -3.570312 7.3125 -3.40625 C 7.195312 -3.25 7.113281 -3.140625 7.0625 -3.078125 C 7.019531 -3.015625 6.90625 -2.929688 6.71875 -2.828125 C 6.539062 -2.722656 6.34375 -2.671875 6.125 -2.671875 C 5.914062 -2.671875 5.722656 -2.71875 5.546875 -2.8125 C 5.378906 -2.914062 5.253906 -3.015625 5.171875 -3.109375 L 5.0625 -3.265625 C 4.875 -3.492188 4.503906 -3.988281 3.953125 -4.75 C 3.398438 -5.519531 3.097656 -5.9375 3.046875 -6 L 3.046875 -1.234375 C 3.046875 -1.023438 3.035156 -0.863281 3.015625 -0.75 C 3.003906 -0.644531 2.960938 -0.523438 2.890625 -0.390625 C 2.753906 -0.140625 2.390625 -0.015625 1.796875 -0.015625 C 1.222656 -0.015625 0.863281 -0.140625 0.71875 -0.390625 C 0.644531 -0.523438 0.597656 -0.648438 0.578125 -0.765625 C 0.566406 -0.878906 0.5625 -1.046875 0.5625 -1.265625 L 0.5625 -9.09375 C 0.5625 -9.3125 0.566406 -9.472656 0.578125 -9.578125 C 0.597656 -9.691406 0.644531 -9.820312 0.71875 -9.96875 C 0.863281 -10.207031 1.226562 -10.328125 1.8125 -10.328125 C 2.070312 -10.328125 2.289062 -10.296875 2.46875 -10.234375 C 2.65625 -10.171875 2.78125 -10.109375 2.84375 -10.046875 L 2.921875 -9.96875 L 6.125 -5.75 C 7.71875 -7.875 8.785156 -9.273438 9.328125 -9.953125 C 9.484375 -10.203125 9.859375 -10.328125 10.453125 -10.328125 C 11.054688 -10.328125 11.425781 -10.203125 11.5625 -9.953125 Z M 11.5625 -9.953125 "/></g></g></g><g fill="#ffffff" fill-opacity="1"><g transform="translate(77.141346, 19.299743)"><g><path d="M 10 -10.1875 C 10.5625 -9.914062 10.84375 -9.613281 10.84375 -9.28125 C 10.84375 -9.132812 10.769531 -8.910156 10.625 -8.609375 L 6.734375 -0.703125 C 6.628906 -0.492188 6.46875 -0.328125 6.25 -0.203125 C 6.039062 -0.078125 5.820312 -0.015625 5.59375 -0.015625 L 5.453125 -0.015625 C 5.222656 -0.015625 5 -0.078125 4.78125 -0.203125 C 4.570312 -0.328125 4.414062 -0.492188 4.3125 -0.703125 L 0.421875 -8.609375 C 0.285156 -8.910156 0.21875 -9.132812 0.21875 -9.28125 C 0.21875 -9.613281 0.492188 -9.914062 1.046875 -10.1875 C 1.359375 -10.34375 1.59375 -10.421875 1.75 -10.421875 C 1.914062 -10.421875 2.039062 -10.398438 2.125 -10.359375 C 2.207031 -10.328125 2.289062 -10.265625 2.375 -10.171875 C 2.457031 -10.054688 2.53125 -9.929688 2.59375 -9.796875 C 2.664062 -9.660156 2.847656 -9.269531 3.140625 -8.625 C 3.429688 -7.976562 3.742188 -7.289062 4.078125 -6.5625 C 4.410156 -5.84375 4.722656 -5.160156 5.015625 -4.515625 C 5.316406 -3.878906 5.488281 -3.519531 5.53125 -3.4375 L 8.359375 -9.625 C 8.429688 -9.800781 8.492188 -9.941406 8.546875 -10.046875 C 8.710938 -10.296875 8.914062 -10.421875 9.15625 -10.421875 C 9.40625 -10.421875 9.6875 -10.34375 10 -10.1875 Z M 10 -10.1875 "/></g></g></g><g fill="#ffffff" fill-opacity="1"><g transform="translate(88.470099, 19.299743)"><g><path d="M 0.5625 -9.09375 C 0.5625 -9.3125 0.566406 -9.472656 0.578125 -9.578125 C 0.597656 -9.691406 0.644531 -9.820312 0.71875 -9.96875 C 0.851562 -10.21875 1.21875 -10.34375 1.8125 -10.34375 C 2.476562 -10.34375 2.867188 -10.164062 2.984375 -9.8125 C 3.035156 -9.65625 3.0625 -9.414062 3.0625 -9.09375 L 3.0625 -1.234375 C 3.0625 -1.015625 3.050781 -0.851562 3.03125 -0.75 C 3.019531 -0.644531 2.976562 -0.519531 2.90625 -0.375 C 2.769531 -0.125 2.40625 0 1.8125 0 C 1.144531 0 0.757812 -0.175781 0.65625 -0.53125 C 0.59375 -0.6875 0.5625 -0.925781 0.5625 -1.25 Z M 0.5625 -9.09375 "/></g></g></g><g fill="#ffffff" fill-opacity="1"><g transform="translate(92.378098, 19.299743)"><g><path d="M 8.484375 -1.75 C 8.617188 -1.40625 8.6875 -1.160156 8.6875 -1.015625 C 8.6875 -0.660156 8.394531 -0.359375 7.8125 -0.109375 C 7.507812 0.015625 7.265625 0.078125 7.078125 0.078125 C 6.898438 0.078125 6.753906 0.0351562 6.640625 -0.046875 C 6.523438 -0.140625 6.4375 -0.234375 6.375 -0.328125 C 6.28125 -0.503906 5.914062 -1.351562 5.28125 -2.875 L 4.84375 -2.84375 L 3.0625 -2.84375 L 3.0625 -1.25 C 3.0625 -1.039062 3.050781 -0.878906 3.03125 -0.765625 C 3.019531 -0.660156 2.976562 -0.535156 2.90625 -0.390625 C 2.769531 -0.140625 2.40625 -0.015625 1.8125 -0.015625 C 1.144531 -0.015625 0.757812 -0.1875 0.65625 -0.53125 C 0.59375 -0.695312 0.5625 -0.941406 0.5625 -1.265625 L 0.5625 -9.09375 C 0.5625 -9.3125 0.566406 -9.472656 0.578125 -9.578125 C 0.597656 -9.691406 0.644531 -9.820312 0.71875 -9.96875 C 0.851562 -10.21875 1.21875 -10.34375 1.8125 -10.34375 L 4.875 -10.34375 C 5.695312 -10.34375 6.5 -10.039062 7.28125 -9.4375 C 7.65625 -9.144531 7.960938 -8.75 8.203125 -8.25 C 8.453125 -7.75 8.578125 -7.195312 8.578125 -6.59375 C 8.578125 -5.53125 8.222656 -4.65625 7.515625 -3.96875 C 7.722656 -3.46875 8.046875 -2.726562 8.484375 -1.75 Z M 3.0625 -5.34375 L 4.875 -5.34375 C 5.144531 -5.34375 5.414062 -5.445312 5.6875 -5.65625 C 5.957031 -5.863281 6.09375 -6.171875 6.09375 -6.578125 C 6.09375 -6.992188 5.957031 -7.304688 5.6875 -7.515625 C 5.414062 -7.734375 5.132812 -7.84375 4.84375 -7.84375 L 3.0625 -7.84375 Z M 3.0625 -5.34375 "/></g></g></g><g fill="#ffffff" fill-opacity="1"><g transform="translate(101.562446, 19.299743)"><g/></g></g><g fill="#ffffff" fill-opacity="1"><g transform="translate(105.414007, 19.299743)"><g><path d="M 5 -5.1875 C 6.4375 -3.8125 7.457031 -2.773438 8.0625 -2.078125 C 8.363281 -1.722656 8.515625 -1.425781 8.515625 -1.1875 C 8.515625 -0.945312 8.328125 -0.664062 7.953125 -0.34375 C 7.578125 -0.0195312 7.269531 0.140625 7.03125 0.140625 C 6.789062 0.140625 6.503906 -0.0546875 6.171875 -0.453125 L 3.0625 -4 L 3.0625 -1.234375 C 3.0625 -1.015625 3.050781 -0.851562 3.03125 -0.75 C 3.019531 -0.644531 2.976562 -0.519531 2.90625 -0.375 C 2.769531 -0.125 2.40625 0 1.8125 0 C 1.144531 0 0.757812 -0.175781 0.65625 -0.53125 C 0.59375 -0.6875 0.5625 -0.925781 0.5625 -1.25 L 0.5625 -9.09375 C 0.5625 -9.3125 0.566406 -9.472656 0.578125 -9.578125 C 0.597656 -9.691406 0.644531 -9.820312 0.71875 -9.96875 C 0.851562 -10.21875 1.21875 -10.34375 1.8125 -10.34375 C 2.476562 -10.34375 2.867188 -10.164062 2.984375 -9.8125 C 3.035156 -9.65625 3.0625 -9.414062 3.0625 -9.09375 L 3.0625 -6.390625 C 4.34375 -7.828125 5.378906 -9.007812 6.171875 -9.9375 C 6.492188 -10.320312 6.773438 -10.515625 7.015625 -10.515625 C 7.265625 -10.515625 7.578125 -10.347656 7.953125 -10.015625 C 8.328125 -9.691406 8.515625 -9.410156 8.515625 -9.171875 C 8.515625 -8.929688 8.375 -8.648438 8.09375 -8.328125 C 7.550781 -7.691406 6.707031 -6.828125 5.5625 -5.734375 Z M 5 -5.1875 "/></g></g></g><g fill="#ffffff" fill-opacity="1"><g transform="translate(114.499579, 19.299743)"><g><path d="M 6.53125 -9.609375 L 10.34375 -1.734375 C 10.5 -1.410156 10.578125 -1.171875 10.578125 -1.015625 C 10.578125 -0.679688 10.304688 -0.375 9.765625 -0.09375 C 9.441406 0.0625 9.1875 0.140625 9 0.140625 C 8.820312 0.140625 8.671875 0.0976562 8.546875 0.015625 C 8.429688 -0.0664062 8.347656 -0.15625 8.296875 -0.25 C 8.242188 -0.34375 8.171875 -0.484375 8.078125 -0.671875 L 7.34375 -2.203125 L 3.4375 -2.203125 L 2.703125 -0.671875 C 2.609375 -0.484375 2.535156 -0.347656 2.484375 -0.265625 C 2.429688 -0.179688 2.347656 -0.09375 2.234375 0 C 2.117188 0.0820312 1.96875 0.125 1.78125 0.125 C 1.601562 0.125 1.351562 0.046875 1.03125 -0.109375 C 0.488281 -0.378906 0.21875 -0.679688 0.21875 -1.015625 C 0.21875 -1.171875 0.296875 -1.410156 0.453125 -1.734375 L 4.265625 -9.625 C 4.367188 -9.84375 4.523438 -10.015625 4.734375 -10.140625 C 4.941406 -10.273438 5.164062 -10.34375 5.40625 -10.34375 C 5.914062 -10.34375 6.289062 -10.097656 6.53125 -9.609375 Z M 5.390625 -6.21875 L 4.453125 -4.296875 L 6.328125 -4.296875 Z M 5.390625 -6.21875 "/></g></g></g><g fill="#ffffff" fill-opacity="1"><g transform="translate(125.151089, 19.299743)"><g><path d="M 0.71875 -1.453125 C 0.476562 -1.753906 0.359375 -2.023438 0.359375 -2.265625 C 0.359375 -2.503906 0.554688 -2.820312 0.953125 -3.21875 C 1.191406 -3.445312 1.441406 -3.5625 1.703125 -3.5625 C 1.972656 -3.5625 2.34375 -3.320312 2.8125 -2.84375 C 2.9375 -2.6875 3.117188 -2.535156 3.359375 -2.390625 C 3.609375 -2.242188 3.835938 -2.171875 4.046875 -2.171875 C 4.921875 -2.171875 5.359375 -2.53125 5.359375 -3.25 C 5.359375 -3.457031 5.238281 -3.632812 5 -3.78125 C 4.757812 -3.925781 4.457031 -4.03125 4.09375 -4.09375 C 3.738281 -4.164062 3.351562 -4.273438 2.9375 -4.421875 C 2.53125 -4.566406 2.144531 -4.738281 1.78125 -4.9375 C 1.425781 -5.132812 1.128906 -5.445312 0.890625 -5.875 C 0.648438 -6.300781 0.53125 -6.816406 0.53125 -7.421875 C 0.53125 -8.242188 0.835938 -8.960938 1.453125 -9.578125 C 2.078125 -10.203125 2.921875 -10.515625 3.984375 -10.515625 C 4.546875 -10.515625 5.054688 -10.441406 5.515625 -10.296875 C 5.984375 -10.148438 6.304688 -10 6.484375 -9.84375 L 6.84375 -9.578125 C 7.132812 -9.304688 7.28125 -9.078125 7.28125 -8.890625 C 7.28125 -8.703125 7.164062 -8.441406 6.9375 -8.109375 C 6.625 -7.640625 6.296875 -7.40625 5.953125 -7.40625 C 5.753906 -7.40625 5.507812 -7.5 5.21875 -7.6875 C 5.1875 -7.707031 5.128906 -7.753906 5.046875 -7.828125 C 4.972656 -7.898438 4.90625 -7.960938 4.84375 -8.015625 C 4.644531 -8.140625 4.390625 -8.203125 4.078125 -8.203125 C 3.773438 -8.203125 3.519531 -8.128906 3.3125 -7.984375 C 3.113281 -7.835938 3.015625 -7.632812 3.015625 -7.375 C 3.015625 -7.113281 3.132812 -6.898438 3.375 -6.734375 C 3.613281 -6.578125 3.910156 -6.46875 4.265625 -6.40625 C 4.628906 -6.351562 5.019531 -6.269531 5.4375 -6.15625 C 5.863281 -6.039062 6.253906 -5.894531 6.609375 -5.71875 C 6.972656 -5.550781 7.273438 -5.257812 7.515625 -4.84375 C 7.753906 -4.425781 7.875 -3.910156 7.875 -3.296875 C 7.875 -2.691406 7.75 -2.15625 7.5 -1.6875 C 7.257812 -1.21875 6.941406 -0.859375 6.546875 -0.609375 C 5.785156 -0.109375 4.972656 0.140625 4.109375 0.140625 C 3.660156 0.140625 3.238281 0.0859375 2.84375 -0.015625 C 2.445312 -0.128906 2.128906 -0.265625 1.890625 -0.421875 C 1.390625 -0.722656 1.039062 -1.015625 0.84375 -1.296875 Z M 0.71875 -1.453125 "/></g></g></g><g fill="#ffffff" fill-opacity="1"><g transform="translate(133.658262, 19.299743)"><g><path d="M 0.5625 -9.09375 C 0.5625 -9.3125 0.566406 -9.472656 0.578125 -9.578125 C 0.597656 -9.691406 0.644531 -9.820312 0.71875 -9.96875 C 0.851562 -10.21875 1.21875 -10.34375 1.8125 -10.34375 C 2.476562 -10.34375 2.867188 -10.164062 2.984375 -9.8125 C 3.035156 -9.65625 3.0625 -9.414062 3.0625 -9.09375 L 3.0625 -1.234375 C 3.0625 -1.015625 3.050781 -0.851562 3.03125 -0.75 C 3.019531 -0.644531 2.976562 -0.519531 2.90625 -0.375 C 2.769531 -0.125 2.40625 0 1.8125 0 C 1.144531 0 0.757812 -0.175781 0.65625 -0.53125 C 0.59375 -0.6875 0.5625 -0.925781 0.5625 -1.25 Z M 0.5625 -9.09375 "/></g></g></g><g fill="#ffffff" fill-opacity="1"><g transform="translate(137.56626, 19.299743)"><g><path d="M 8.484375 -1.75 C 8.617188 -1.40625 8.6875 -1.160156 8.6875 -1.015625 C 8.6875 -0.660156 8.394531 -0.359375 7.8125 -0.109375 C 7.507812 0.015625 7.265625 0.078125 7.078125 0.078125 C 6.898438 0.078125 6.753906 0.0351562 6.640625 -0.046875 C 6.523438 -0.140625 6.4375 -0.234375 6.375 -0.328125 C 6.28125 -0.503906 5.914062 -1.351562 5.28125 -2.875 L 4.84375 -2.84375 L 3.0625 -2.84375 L 3.0625 -1.25 C 3.0625 -1.039062 3.050781 -0.878906 3.03125 -0.765625 C 3.019531 -0.660156 2.976562 -0.535156 2.90625 -0.390625 C 2.769531 -0.140625 2.40625 -0.015625 1.8125 -0.015625 C 1.144531 -0.015625 0.757812 -0.1875 0.65625 -0.53125 C 0.59375 -0.695312 0.5625 -0.941406 0.5625 -1.265625 L 0.5625 -9.09375 C 0.5625 -9.3125 0.566406 -9.472656 0.578125 -9.578125 C 0.597656 -9.691406 0.644531 -9.820312 0.71875 -9.96875 C 0.851562 -10.21875 1.21875 -10.34375 1.8125 -10.34375 L 4.875 -10.34375 C 5.695312 -10.34375 6.5 -10.039062 7.28125 -9.4375 C 7.65625 -9.144531 7.960938 -8.75 8.203125 -8.25 C 8.453125 -7.75 8.578125 -7.195312 8.578125 -6.59375 C 8.578125 -5.53125 8.222656 -4.65625 7.515625 -3.96875 C 7.722656 -3.46875 8.046875 -2.726562 8.484375 -1.75 Z M 3.0625 -5.34375 L 4.875 -5.34375 C 5.144531 -5.34375 5.414062 -5.445312 5.6875 -5.65625 C 5.957031 -5.863281 6.09375 -6.171875 6.09375 -6.578125 C 6.09375 -6.992188 5.957031 -7.304688 5.6875 -7.515625 C 5.414062 -7.734375 5.132812 -7.84375 4.84375 -7.84375 L 3.0625 -7.84375 Z M 3.0625 -5.34375 "/></g></g></g></svg>