<svg xmlns="http://www.w3.org/2000/svg" xmlns:xlink="http://www.w3.org/1999/xlink" width="42" zoomAndPan="magnify" viewBox="0 0 31.5 30.000001" height="40" preserveAspectRatio="xMidYMid meet" version="1.0"><defs><g/><clipPath id="2b6578f95c"><path d="M 0.265625 0 L 30.75 0 L 30.75 29.03125 L 0.265625 29.03125 Z M 0.265625 0 " clip-rule="nonzero"/></clipPath><clipPath id="4344051599"><path d="M 1.007812 15 L 29.828125 15 L 29.828125 28.820312 L 1.007812 28.820312 Z M 1.007812 15 " clip-rule="nonzero"/></clipPath><clipPath id="afcc25ffa1"><path d="M 1.007812 3.628906 L 1.007812 25.371094 C 1.007812 26.335938 1.390625 27.257812 2.070312 27.9375 C 2.75 28.617188 3.675781 29 4.636719 29 L 26.378906 29 C 27.34375 29 28.265625 28.617188 28.945312 27.9375 C 29.625 27.257812 30.007812 26.335938 30.007812 25.371094 L 30.007812 3.628906 C 30.007812 2.667969 29.625 1.742188 28.945312 1.0625 C 28.265625 0.382812 27.34375 0 26.378906 0 L 4.636719 0 C 3.675781 0 2.75 0.382812 2.070312 1.0625 C 1.390625 1.742188 1.007812 2.667969 1.007812 3.628906 Z M 1.007812 3.628906 " clip-rule="nonzero"/></clipPath><clipPath id="96114432af"><path d="M 1.007812 0 L 29.828125 0 L 29.828125 15 L 1.007812 15 Z M 1.007812 0 " clip-rule="nonzero"/></clipPath><clipPath id="04f6a67ee7"><path d="M 1.007812 3.628906 L 1.007812 25.371094 C 1.007812 26.335938 1.390625 27.257812 2.070312 27.9375 C 2.75 28.617188 3.675781 29 4.636719 29 L 26.378906 29 C 27.34375 29 28.265625 28.617188 28.945312 27.9375 C 29.625 27.257812 30.007812 26.335938 30.007812 25.371094 L 30.007812 3.628906 C 30.007812 2.667969 29.625 1.742188 28.945312 1.0625 C 28.265625 0.382812 27.34375 0 26.378906 0 L 4.636719 0 C 3.675781 0 2.75 0.382812 2.070312 1.0625 C 1.390625 1.742188 1.007812 2.667969 1.007812 3.628906 Z M 1.007812 3.628906 " clip-rule="nonzero"/></clipPath><clipPath id="2e240ec916"><path d="M 0.464844 4 L 16.722656 4 L 16.722656 19 L 0.464844 19 Z M 0.464844 4 " clip-rule="nonzero"/></clipPath><clipPath id="ac22989a33"><rect x="0" width="17" y="0" height="23"/></clipPath><clipPath id="65c84b2045"><rect x="0" width="31" y="0" height="30"/></clipPath></defs><g clip-path="url(#2b6578f95c)"><path fill="#ffffff" d="M 0.265625 0 L 30.75 0 L 30.75 29.03125 L 0.265625 29.03125 Z M 0.265625 0 " fill-opacity="1" fill-rule="nonzero"/><path fill="#ffffff" d="M 0.265625 0 L 30.75 0 L 30.75 29.03125 L 0.265625 29.03125 Z M 0.265625 0 " fill-opacity="1" fill-rule="nonzero"/><g transform="matrix(1, 0, 0, 1, 0, 0.000000000000005692)"><g clip-path="url(#65c84b2045)"><g clip-path="url(#4344051599)"><g clip-path="url(#afcc25ffa1)"><path fill="#404041" d="M 30.003906 15.59375 L 30.003906 17.875 C 30.003906 20.933594 28.753906 23.714844 26.738281 25.730469 C 24.722656 27.746094 21.941406 28.996094 18.882812 28.996094 L 12.128906 28.996094 C 9.070312 28.996094 6.289062 27.746094 4.273438 25.730469 C 2.257812 23.714844 1.007812 20.933594 1.007812 17.875 L 1.007812 15.59375 C 2.390625 16.167969 3.804688 16.644531 5.25 17.027344 L 5.25 17.875 C 5.25 19.761719 6.027344 21.484375 7.273438 22.730469 C 8.523438 23.976562 10.242188 24.753906 12.128906 24.753906 L 18.882812 24.753906 C 20.769531 24.753906 22.492188 23.976562 23.738281 22.730469 C 24.984375 21.484375 25.761719 19.761719 25.761719 17.875 L 25.761719 17.027344 C 27.207031 16.644531 28.621094 16.167969 30.003906 15.59375 Z M 30.003906 15.59375 " fill-opacity="1" fill-rule="nonzero"/></g></g><g clip-path="url(#96114432af)"><g clip-path="url(#04f6a67ee7)"><path fill="#ffb703" d="M 12.128906 0 L 18.882812 0 C 21.941406 0 24.722656 1.25 26.738281 3.265625 C 28.753906 5.28125 30.003906 8.0625 30.003906 11.121094 L 30.003906 13.136719 C 28.683594 13.738281 27.261719 14.257812 25.761719 14.6875 L 25.761719 11.121094 C 25.761719 9.234375 24.984375 7.515625 23.738281 6.265625 C 22.492188 5.019531 20.769531 4.242188 18.882812 4.242188 L 12.128906 4.242188 C 10.242188 4.242188 8.523438 5.019531 7.273438 6.265625 C 6.027344 7.515625 5.25 9.234375 5.25 11.121094 L 5.25 14.6875 C 3.75 14.257812 2.332031 13.738281 1.007812 13.136719 L 1.007812 11.121094 C 1.007812 8.0625 2.257812 5.28125 4.273438 3.265625 C 6.289062 1.25 9.070312 0 12.128906 0 Z M 12.128906 0 " fill-opacity="1" fill-rule="nonzero"/></g></g><g transform="matrix(1, 0, 0, 1, 7, 3)"><g clip-path="url(#ac22989a33)"><g clip-path="url(#2e240ec916)"><g fill="#ffb703" fill-opacity="1"><g transform="translate(0.942447, 18.016265)"><g><path d="M 11 0 L 8.203125 -10.921875 L 8.890625 -13.546875 L 12.015625 -13.546875 L 15.453125 0 Z M -0.359375 0 L 1.890625 -8.703125 L 4.125 0 Z M 5.296875 0 L 2.5 -10.921875 L 3.1875 -13.546875 L 6.296875 -13.546875 L 9.765625 0 Z M 5.296875 0 "/></g></g></g></g></g></g></g></g></g></svg>